<?xml version="1.0" encoding="UTF-8"?>
<svg xmlns="http://www.w3.org/2000/svg" xmlns:xlink="http://www.w3.org/1999/xlink" width="40pt" height="40pt" viewBox="0 0 40 40" version="1.1">
<g id="surface1">
<path style=" stroke:none;fill-rule:nonzero;fill:rgb(0%,0%,0%);fill-opacity:1;" d="M 4 5.625 C 2.5625 6.0625 1.34375 7.125 0.65625 8.53125 C 0.03125 9.8125 0 10.375 0 20 C 0 29.65625 0.03125 30.1875 0.65625 31.5 C 1.0625 32.3125 1.84375 33.1875 2.59375 33.6875 L 3.875 34.53125 L 36.125 34.53125 L 37.40625 33.6875 C 38.15625 33.1875 38.9375 32.3125 39.34375 31.5 C 39.96875 30.1875 40 29.65625 40 20 C 40 10.34375 39.96875 9.8125 39.34375 8.5 C 38.9375 7.6875 38.15625 6.8125 37.40625 6.3125 L 36.125 5.46875 L 20.5 5.40625 C 11.875 5.375 4.46875 5.46875 4 5.625 Z M 23.875 10.5 C 24.15625 10.75 24.375 11 24.375 11.0625 C 24.375 11.125 18.96875 26.46875 18.25 28.34375 C 18 29.0625 17.5625 29.71875 17.34375 29.8125 C 16.71875 30.03125 16.03125 29.75 15.8125 29.1875 C 15.65625 28.75 21.6875 11.125 22.28125 10.375 C 22.6875 9.875 23.28125 9.90625 23.875 10.5 Z M 14.625 13.40625 C 14.71875 14 14.09375 14.78125 11.6875 17.21875 L 8.59375 20.3125 L 11.375 23.09375 C 13.53125 25.25 14.09375 26 14 26.59375 C 13.9375 27.125 13.6875 27.375 13.125 27.4375 C 12.46875 27.5 11.71875 26.875 8.96875 24.125 C 7.125 22.25 5.625 20.53125 5.625 20.3125 C 5.625 20.09375 7.28125 18.21875 9.28125 16.1875 C 12.28125 13.15625 13.09375 12.5 13.75 12.5625 C 14.3125 12.625 14.5625 12.875 14.625 13.40625 Z M 31.03125 15.90625 C 32.875 17.75 34.375 19.46875 34.375 19.6875 C 34.375 19.90625 32.71875 21.78125 30.71875 23.8125 C 27.71875 26.84375 26.90625 27.5 26.25 27.4375 C 25.6875 27.375 25.4375 27.125 25.375 26.59375 C 25.28125 26 25.90625 25.21875 28.3125 22.78125 L 31.40625 19.6875 L 28.65625 16.9375 C 26.15625 14.40625 25.5 13.34375 26.15625 12.71875 C 26.84375 12.03125 27.90625 12.71875 31.03125 15.90625 Z M 31.03125 15.90625 "/>
</g>
</svg>
