<?xml version="1.0" encoding="UTF-8"?>
<svg xmlns="http://www.w3.org/2000/svg" xmlns:xlink="http://www.w3.org/1999/xlink" width="40pt" height="40pt" viewBox="0 0 40 40" version="1.1">
<g id="surface1">
<path style=" stroke:none;fill-rule:nonzero;fill:rgb(0%,0%,0%);fill-opacity:1;" d="M 18.054688 4.070312 C 17.167969 5.042969 16.59375 5.308594 16.0625 5.089844 C 15.621094 4.910156 14.734375 4.644531 14.070312 4.558594 C 13.054688 4.378906 12.832031 4.511719 12.609375 5.574219 C 12.035156 8.1875 12.167969 8.054688 9.558594 8.628906 C 8.496094 8.847656 8.363281 9.070312 8.539062 10.089844 C 8.628906 10.753906 8.894531 11.636719 9.070312 12.035156 C 9.292969 12.609375 8.980469 13.1875 8.007812 14.113281 C 7.257812 14.824219 6.636719 15.621094 6.636719 15.929688 C 6.636719 16.238281 7.257812 17.035156 8.007812 17.742188 C 8.980469 18.671875 9.292969 19.246094 9.070312 19.824219 C 8.894531 20.222656 8.628906 21.105469 8.539062 21.769531 C 8.363281 22.789062 8.496094 23.007812 9.558594 23.230469 C 12.167969 23.804688 12.035156 23.671875 12.609375 26.28125 C 12.832031 27.34375 13.054688 27.476562 14.070312 27.300781 C 14.734375 27.210938 15.621094 26.945312 16.019531 26.769531 C 16.59375 26.546875 17.167969 26.859375 18.097656 27.832031 C 18.804688 28.585938 19.601562 29.203125 19.910156 29.203125 C 20.222656 29.203125 21.019531 28.585938 21.726562 27.832031 C 22.65625 26.859375 23.230469 26.546875 23.804688 26.769531 C 24.203125 26.945312 25.089844 27.210938 25.753906 27.300781 C 26.769531 27.476562 26.992188 27.34375 27.210938 26.28125 C 27.789062 23.671875 27.65625 23.804688 30.265625 23.230469 C 31.328125 23.007812 31.460938 22.789062 31.28125 21.769531 C 31.195312 21.105469 30.929688 20.222656 30.753906 19.824219 C 30.53125 19.246094 30.839844 18.671875 31.8125 17.742188 C 32.566406 17.035156 33.1875 16.238281 33.1875 15.929688 C 33.1875 15.621094 32.566406 14.824219 31.8125 14.113281 C 30.839844 13.1875 30.53125 12.609375 30.753906 12.035156 C 30.929688 11.636719 31.195312 10.753906 31.28125 10.089844 C 31.460938 9.070312 31.328125 8.847656 30.265625 8.628906 C 27.65625 8.054688 27.789062 8.1875 27.210938 5.574219 C 26.992188 4.511719 26.769531 4.378906 25.753906 4.558594 C 25.089844 4.644531 24.203125 4.910156 23.804688 5.089844 C 23.230469 5.308594 22.65625 5 21.726562 4.027344 C 20.132812 2.34375 19.558594 2.34375 18.054688 4.070312 Z M 26.460938 13.007812 C 26.59375 13.539062 25.621094 14.867188 23.585938 16.902344 C 19.246094 21.328125 19.335938 21.28125 16.769531 18.761719 C 14.425781 16.460938 14.203125 15.929688 15.265625 15.042969 C 15.839844 14.558594 16.195312 14.691406 17.523438 15.972656 L 19.027344 17.433594 L 21.8125 14.691406 C 24.644531 11.859375 26.152344 11.28125 26.460938 13.007812 Z M 26.460938 13.007812 "/>
<path style=" stroke:none;fill-rule:nonzero;fill:rgb(0%,0%,0%);fill-opacity:1;" d="M 9.113281 30.664062 C 7.125 35.175781 7.078125 35 9.957031 34.691406 L 12.433594 34.378906 L 13.980469 36.238281 C 14.867188 37.210938 15.707031 38.054688 15.839844 38.054688 C 16.019531 38.054688 16.726562 36.636719 17.433594 34.957031 L 18.671875 31.859375 L 17.476562 30.886719 C 16.59375 30.175781 15.753906 29.957031 14.425781 30.042969 C 13.097656 30.132812 12.257812 29.867188 11.371094 29.203125 L 10.175781 28.273438 Z M 9.113281 30.664062 "/>
<path style=" stroke:none;fill-rule:nonzero;fill:rgb(0%,0%,0%);fill-opacity:1;" d="M 28.363281 29.246094 C 27.566406 29.910156 26.726562 30.132812 25.441406 30.042969 C 24.070312 29.957031 23.273438 30.175781 22.34375 30.886719 L 21.152344 31.859375 L 22.390625 34.957031 C 23.097656 36.636719 23.804688 38.054688 23.980469 38.054688 C 24.113281 38.054688 24.957031 37.210938 25.839844 36.238281 L 27.390625 34.378906 L 29.867188 34.691406 C 32.257812 34.957031 32.34375 34.957031 32.078125 34.027344 C 31.679688 32.789062 29.691406 28.320312 29.558594 28.320312 C 29.46875 28.363281 28.9375 28.761719 28.363281 29.246094 Z M 28.363281 29.246094 "/>
</g>
</svg>
