<?xml version="1.0" encoding="UTF-8"?>
<svg xmlns="http://www.w3.org/2000/svg" xmlns:xlink="http://www.w3.org/1999/xlink" width="40pt" height="40pt" viewBox="0 0 40 40" version="1.1">
<g id="surface1">
<path style=" stroke:none;fill-rule:nonzero;fill:rgb(0%,0%,0%);fill-opacity:1;" d="M 20 5 C 11.730469 5 5 11.730469 5 20 C 5 28.269531 11.730469 35 20 35 C 28.269531 35 35 28.269531 35 20 C 35 11.730469 28.269531 5 20 5 Z M 20 7.5 C 26.917969 7.5 32.5 13.082031 32.5 20 C 32.5 26.105469 28.160156 31.160156 22.382812 32.265625 C 22.320312 32.175781 22.292969 32.128906 22.226562 32.03125 C 21.773438 31.386719 21.433594 30.859375 21.25 30.46875 C 22.433594 30.949219 23.226562 31.171875 23.632812 31.171875 C 23.929688 31.171875 24.0625 30.726562 24.0625 29.804688 C 24.0625 28.085938 23.90625 27.226562 23.59375 27.226562 C 23.132812 27.226562 22.265625 27.734375 20.9375 28.75 C 20.9375 28.492188 20.785156 28.359375 20.507812 28.398438 L 20.351562 28.398438 C 19.871094 27.125 19.648438 26 19.648438 25 C 19.648438 24.722656 19.671875 24.457031 19.726562 24.179688 C 21.425781 25.011719 22.792969 25.429688 23.828125 25.429688 C 24.402344 25.429688 25.25 25.253906 26.40625 24.921875 C 27.5625 24.589844 28.164062 24.21875 28.164062 23.828125 C 28.164062 23.589844 28.007812 23.476562 27.695312 23.476562 C 27.214844 23.476562 26.492188 23.542969 25.585938 23.671875 C 24.679688 23.800781 23.996094 23.867188 23.515625 23.867188 C 23.015625 23.867188 22.476562 23.734375 21.875 23.476562 C 21.273438 23.21875 20.976562 22.867188 20.976562 22.421875 C 20.976562 22.328125 20.988281 22.273438 21.015625 22.226562 C 21.039062 22.179688 21.078125 22.15625 21.132812 22.148438 C 21.1875 22.140625 21.234375 22.140625 21.289062 22.148438 C 21.34375 22.15625 21.433594 22.140625 21.523438 22.148438 C 21.613281 22.15625 21.683594 22.1875 21.757812 22.1875 C 21.925781 22.1875 22.183594 22.179688 22.5 22.226562 C 22.816406 22.273438 23.054688 22.304688 23.203125 22.304688 C 23.777344 22.304688 24.945312 21.960938 26.71875 21.289062 C 28.492188 20.613281 29.375 20.097656 29.375 19.726562 C 29.375 19.503906 29.207031 19.351562 28.867188 19.257812 C 28.523438 19.164062 28.1875 19.140625 27.890625 19.140625 C 27.632812 19.140625 27.234375 19.195312 26.71875 19.335938 C 26.203125 19.476562 25.648438 19.648438 25.039062 19.84375 C 24.429688 20.039062 24.03125 20.140625 23.828125 20.195312 C 23.902344 19.824219 23.945312 19.558594 23.945312 19.335938 C 23.945312 18.46875 23.703125 17.445312 23.242188 16.289062 C 22.78125 15.132812 22.25 14.265625 21.640625 13.710938 C 21.140625 13.265625 20.480469 12.980469 19.648438 12.8125 C 19.132812 12.148438 18.328125 11.523438 17.226562 10.976562 C 16.125 10.429688 15.148438 10.15625 14.296875 10.15625 C 14.128906 10.15625 13.859375 10.207031 13.515625 10.273438 C 13.175781 10.339844 12.984375 10.371094 12.890625 10.390625 L 12.265625 11.25 L 12.421875 11.289062 C 12.550781 11.289062 12.777344 11.246094 13.046875 11.210938 C 13.3125 11.171875 13.503906 11.171875 13.632812 11.171875 C 14.261719 11.171875 14.96875 11.304688 15.78125 11.5625 C 15.265625 11.820312 14.804688 11.976562 14.414062 12.070312 C 14.375 12.089844 14.265625 12.121094 14.0625 12.148438 C 13.859375 12.175781 13.695312 12.199219 13.554688 12.226562 C 13.414062 12.253906 13.285156 12.339844 13.164062 12.421875 C 13.042969 12.503906 13.007812 12.605469 13.007812 12.734375 C 14.042969 12.625 14.796875 12.539062 15.3125 12.539062 C 16.015625 12.539062 16.585938 12.605469 16.992188 12.734375 C 15.570312 12.902344 14.476562 13.40625 13.710938 14.21875 C 12.945312 15.03125 12.539062 16.15625 12.539062 17.578125 C 12.539062 18.078125 12.582031 18.519531 12.65625 18.945312 C 13.007812 21.164062 13.691406 24.46875 14.6875 28.867188 C 14.960938 30.140625 15.109375 30.800781 15.273438 31.5625 C 10.707031 29.703125 7.5 25.246094 7.5 20 C 7.5 13.082031 13.082031 7.5 20 7.5 Z M 21.757812 15.273438 C 22.21875 15.273438 22.550781 15.492188 22.734375 15.898438 C 22.363281 15.714844 22.035156 15.625 21.796875 15.625 C 21.261719 15.625 20.929688 15.738281 20.78125 15.976562 C 20.855469 15.515625 21.183594 15.273438 21.757812 15.273438 Z M 15.429688 15.585938 C 15.78125 15.585938 16.027344 15.738281 16.210938 15.976562 C 15.988281 15.882812 15.8125 15.820312 15.664062 15.820312 C 15.351562 15.820312 15.039062 15.949219 14.6875 16.171875 C 14.335938 16.394531 14.160156 16.65625 14.179688 16.953125 C 14.125 16.84375 14.101562 16.710938 14.101562 16.601562 C 14.101562 16.289062 14.246094 16.035156 14.53125 15.859375 C 14.816406 15.683594 15.113281 15.585938 15.429688 15.585938 Z M 22.226562 17.304688 C 22.449219 17.304688 22.617188 17.421875 22.773438 17.578125 C 22.929688 17.734375 23.007812 17.902344 23.007812 18.125 C 23.007812 18.328125 22.929688 18.503906 22.773438 18.671875 C 22.617188 18.839844 22.449219 18.945312 22.226562 18.945312 C 22.023438 18.945312 21.847656 18.839844 21.679688 18.671875 C 21.511719 18.503906 21.40625 18.328125 21.40625 18.125 C 21.40625 17.902344 21.511719 17.734375 21.679688 17.578125 C 21.847656 17.421875 22.023438 17.304688 22.226562 17.304688 Z M 22.578125 17.65625 C 22.449219 17.65625 22.382812 17.722656 22.382812 17.851562 C 22.382812 18 22.449219 18.085938 22.578125 18.085938 C 22.726562 18.085938 22.8125 18 22.8125 17.851562 C 22.8125 17.722656 22.726562 17.65625 22.578125 17.65625 Z M 15.9375 17.734375 C 16.175781 17.734375 16.40625 17.851562 16.601562 18.046875 C 16.796875 18.242188 16.914062 18.433594 16.914062 18.671875 C 16.914062 18.910156 16.796875 19.140625 16.601562 19.335938 C 16.40625 19.53125 16.175781 19.609375 15.9375 19.609375 C 15.699219 19.609375 15.507812 19.53125 15.3125 19.335938 C 15.117188 19.140625 15 18.910156 15 18.671875 C 15 18.433594 15.117188 18.242188 15.3125 18.046875 C 15.507812 17.851562 15.699219 17.734375 15.9375 17.734375 Z M 16.367188 18.125 C 16.199219 18.125 16.132812 18.191406 16.132812 18.359375 C 16.132812 18.507812 16.199219 18.59375 16.367188 18.59375 C 16.535156 18.59375 16.601562 18.507812 16.601562 18.359375 C 16.601562 18.191406 16.535156 18.125 16.367188 18.125 Z M 16.367188 18.125 "/>
</g>
</svg>
