<?xml version="1.0" encoding="UTF-8"?>
<svg xmlns="http://www.w3.org/2000/svg" xmlns:xlink="http://www.w3.org/1999/xlink" width="99pt" height="96pt" viewBox="0 0 99 96" version="1.1">
<g id="surface1">
<path style=" stroke:none;fill-rule:nonzero;fill:rgb(0%,0%,0%);fill-opacity:1;" d="M 46.707031 0.171875 C 44.394531 0.339844 43.394531 0.445312 41.683594 0.734375 C 33.332031 2.136719 25.742188 5.71875 19.175781 11.363281 C 18.050781 12.320312 15.492188 14.871094 14.625 15.878906 L 14.0625 16.542969 L 13.898438 16.347656 C 13.621094 16.007812 12.960938 14.839844 12.640625 14.121094 C 11.996094 12.652344 11.375 10.507812 11.035156 8.535156 C 10.953125 8.050781 10.871094 7.640625 10.859375 7.621094 C 10.839844 7.609375 10.65625 7.792969 10.441406 8.035156 C 8.285156 10.480469 6.941406 13.75 6.230469 18.222656 C 5.929688 20.171875 5.78125 21.96875 5.714844 24.796875 L 5.675781 26.519531 L 5.171875 27.289062 C 4.890625 27.707031 4.609375 28.089844 4.53125 28.136719 C 4.457031 28.1875 4.222656 28.5 4.019531 28.839844 C 3.445312 29.78125 1.996094 32.355469 1.707031 32.9375 C 0.585938 35.183594 0 37.789062 0.214844 39.585938 C 0.238281 39.828125 0.289062 40.019531 0.324219 40.019531 C 0.355469 40.019531 0.984375 39.515625 1.730469 38.902344 C 2.476562 38.292969 3.101562 37.789062 3.121094 37.789062 C 3.140625 37.789062 3.085938 37.980469 2.996094 38.214844 C 1.921875 41.003906 1.175781 44.566406 0.941406 47.96875 C 0.847656 49.339844 0.902344 52.664062 1.042969 53.96875 C 1.769531 60.925781 4.210938 67.4375 8.589844 74.136719 C 9.902344 76.15625 12.335938 79.035156 14.832031 81.515625 C 23.175781 89.839844 32.949219 94.53125 44.335938 95.679688 C 50.039062 96.253906 55.574219 95.878906 60.6875 94.570312 C 63.675781 93.796875 66.316406 92.808594 69.175781 91.371094 C 72.847656 89.527344 75.925781 87.433594 79.320312 84.460938 C 80.335938 83.574219 83.359375 80.546875 84.199219 79.582031 C 85.714844 77.839844 88.238281 74.316406 89.855469 71.679688 C 93.566406 65.640625 96.0625 59.355469 97.300781 52.980469 C 97.425781 52.328125 97.609375 51.441406 97.710938 51 C 99.039062 45.28125 99.265625 40.25 98.394531 35.96875 C 98.132812 34.679688 98.148438 34.722656 98.082031 34.722656 C 98.050781 34.722656 98.027344 34.804688 98.027344 34.910156 C 98.027344 35.242188 97.589844 37.730469 97.425781 38.363281 C 97.199219 39.203125 96.875 39.894531 96.699219 39.894531 C 96.675781 39.894531 96.636719 39.382812 96.617188 38.757812 C 96.34375 31.21875 94.589844 24.242188 91.625 18.945312 C 90.835938 17.535156 89.28125 15.128906 89.210938 15.203125 C 89.199219 15.21875 89.304688 15.695312 89.4375 16.277344 C 90.113281 19.148438 90.488281 21.441406 90.59375 23.328125 L 90.632812 23.96875 L 90.296875 23.011719 C 89.867188 21.777344 89.519531 20.96875 89.007812 19.984375 C 87.3125 16.703125 84.855469 13.964844 81.671875 11.78125 C 80.246094 10.804688 78.625 9.933594 77.042969 9.289062 C 76.707031 9.148438 76.214844 8.878906 75.9375 8.679688 C 68.960938 3.695312 60.78125 0.765625 52.242188 0.199219 C 51.34375 0.132812 47.441406 0.113281 46.707031 0.171875 Z M 51.730469 4.402344 C 55.011719 4.613281 57.949219 5.136719 61.148438 6.078125 C 62.210938 6.390625 62.363281 6.460938 61.84375 6.414062 C 61.636719 6.402344 61.238281 6.371094 60.957031 6.359375 L 60.453125 6.324219 L 61.75 6.757812 C 65.457031 8.011719 68.542969 9.605469 70.476562 11.265625 C 70.957031 11.679688 71.546875 12.375 71.546875 12.523438 C 71.546875 12.5625 71.46875 12.574219 71.375 12.554688 C 70.269531 12.332031 67.859375 12.339844 66.828125 12.5625 C 66.027344 12.742188 65.136719 13.019531 65.199219 13.078125 C 65.230469 13.105469 65.496094 13.226562 65.792969 13.339844 C 67.550781 14.035156 70.351562 15.339844 72.074219 16.257812 C 75.578125 18.132812 78.164062 19.964844 80.210938 22.019531 C 81.734375 23.546875 82.65625 24.796875 83.402344 26.328125 C 84.28125 28.136719 84.699219 30.132812 84.570312 31.945312 L 84.53125 32.457031 L 84.28125 32.105469 C 83.457031 30.945312 82.195312 29.96875 80.976562 29.527344 C 80.5625 29.378906 80.511719 29.375 80.546875 29.46875 C 80.601562 29.679688 81.019531 31.492188 81.175781 32.234375 C 82.316406 37.550781 82.546875 42.671875 81.839844 46.769531 C 81.707031 47.558594 81.265625 49.390625 81.164062 49.5625 C 81.121094 49.652344 81.0625 49.550781 80.898438 49.046875 C 80.582031 48.089844 79.851562 46.265625 79.476562 45.511719 C 79.078125 44.710938 78.472656 43.78125 78.148438 43.46875 L 77.914062 43.246094 L 77.953125 43.5 C 78.015625 43.921875 78.175781 45.605469 78.257812 46.691406 C 78.371094 48.253906 78.351562 51.9375 78.21875 53.363281 C 77.738281 58.601562 76.40625 62.609375 74.023438 65.960938 C 73.59375 66.5625 72.675781 67.679688 72.644531 67.640625 C 72.632812 67.628906 72.757812 67.058594 72.929688 66.375 C 73.492188 64.125 73.710938 62.476562 73.679688 60.796875 L 73.664062 59.777344 L 73.132812 60.542969 C 68.234375 67.582031 63.050781 71.585938 57.199219 72.855469 C 55.882812 73.140625 54.984375 73.238281 53.628906 73.230469 C 49.335938 73.21875 45.0625 72.082031 41.367188 69.96875 C 40.523438 69.492188 38.753906 68.277344 37.964844 67.640625 C 37.144531 66.976562 35.519531 65.496094 35.519531 65.40625 C 35.519531 65.375 35.59375 65.367188 35.695312 65.386719 C 36.113281 65.464844 38.046875 65.488281 39.089844 65.433594 C 41.765625 65.273438 43.800781 64.84375 46.199219 63.957031 C 47.671875 63.410156 48.3125 63.042969 51.597656 60.894531 C 53.429688 59.699219 54.871094 58.792969 55.035156 58.75 C 55.453125 58.621094 56.210938 58.640625 56.628906 58.789062 C 57.070312 58.941406 57.109375 58.941406 57.609375 58.78125 C 58.070312 58.621094 58.5 58.289062 58.625 57.976562 C 58.738281 57.714844 58.734375 57.042969 58.625 56.730469 C 58.507812 56.386719 57.886719 55.652344 57.273438 55.125 C 55.914062 53.957031 54.386719 53.171875 52.765625 52.8125 C 51.945312 52.628906 50.183594 52.640625 49.308594 52.839844 C 48.027344 53.125 47.066406 53.535156 45.472656 54.453125 C 42.175781 56.355469 38.855469 56.277344 35.878906 54.234375 C 33.832031 52.832031 31.050781 50.066406 29.820312 48.222656 L 29.441406 47.648438 L 29.476562 47.1875 C 29.609375 45.703125 30.222656 44.617188 31.210938 44.125 C 31.953125 43.75 32.09375 43.742188 33.660156 44.003906 C 35.398438 44.304688 37.597656 44.746094 38.578125 44.992188 C 38.996094 45.101562 39.34375 45.179688 39.351562 45.171875 C 39.363281 45.164062 39.398438 44.839844 39.445312 44.457031 C 39.652344 42.472656 39.171875 40.257812 38.027344 38.023438 C 37.8125 37.597656 37.628906 37.230469 37.617188 37.207031 C 37.597656 37.15625 38.792969 36.0625 39.785156 35.234375 C 41.203125 34.039062 42.636719 33 44.019531 32.171875 C 44.777344 31.710938 45.140625 31.359375 45.410156 30.8125 C 45.53125 30.566406 45.632812 30.3125 45.632812 30.25 C 45.632812 30.191406 45.703125 30.050781 45.789062 29.949219 C 46 29.699219 46.136719 29.355469 46.136719 29.101562 C 46.136719 28.8125 45.878906 28.398438 45.570312 28.179688 C 45.324219 28.007812 45.296875 28.003906 44.726562 28.039062 C 43.957031 28.097656 42.230469 27.988281 41.121094 27.824219 C 40.632812 27.746094 40.171875 27.6875 40.101562 27.6875 C 39.894531 27.703125 39.121094 27.273438 38.503906 26.796875 C 38.179688 26.546875 37.132812 25.578125 36.164062 24.636719 C 35.203125 23.699219 34.203125 22.769531 33.957031 22.5625 C 33.707031 22.367188 33.496094 22.1875 33.496094 22.167969 C 33.496094 22.140625 33.542969 22.078125 33.597656 22.015625 C 33.648438 21.957031 33.75 21.625 33.820312 21.28125 C 34.21875 19.296875 35.273438 17.121094 36.707031 15.320312 C 37.679688 14.105469 39.300781 12.59375 40.65625 11.628906 C 40.929688 11.4375 41.136719 11.273438 41.125 11.253906 C 41.105469 11.242188 40.753906 11.285156 40.328125 11.355469 C 36.101562 12.078125 32.339844 13.945312 28.808594 17.09375 L 27.984375 17.828125 L 27.4375 17.65625 C 25.140625 16.945312 22.417969 16.972656 19.449219 17.726562 C 18.960938 17.847656 18.554688 17.9375 18.542969 17.917969 C 18.488281 17.859375 21.34375 15.097656 22.277344 14.304688 C 28.625 8.957031 35.992188 5.6875 44.050781 4.664062 C 44.886719 4.558594 45.6875 4.488281 47.148438 4.386719 C 47.871094 4.335938 50.820312 4.347656 51.730469 4.402344 Z M 51.730469 4.402344 "/>
</g>
</svg>
