<?xml version="1.0" encoding="UTF-8"?>
<svg xmlns="http://www.w3.org/2000/svg" xmlns:xlink="http://www.w3.org/1999/xlink" width="37pt" height="37pt" viewBox="0 0 37 37" version="1.1">
<g id="surface1">
<path style=" stroke:none;fill-rule:nonzero;fill:rgb(0%,0%,0%);fill-opacity:1;" d="M 18.503906 3.699219 C 10.328125 3.699219 3.699219 10.328125 3.699219 18.5 C 3.699219 26.671875 10.328125 33.300781 18.503906 33.300781 C 30.851562 33.300781 33.632812 21.839844 32.472656 16.035156 L 18.5 16.035156 L 18.5 20.964844 L 28.042969 20.964844 C 26.945312 25.21875 23.09375 28.367188 18.5 28.367188 C 13.050781 28.367188 8.632812 23.949219 8.632812 18.5 C 8.632812 13.050781 13.050781 8.632812 18.5 8.632812 C 20.976562 8.632812 23.234375 9.554688 24.96875 11.0625 L 28.472656 7.558594 C 25.839844 5.160156 22.34375 3.699219 18.503906 3.699219 Z M 18.503906 3.699219 "/>
</g>
</svg>
