<?xml version="1.0" encoding="UTF-8"?>
<svg xmlns="http://www.w3.org/2000/svg" xmlns:xlink="http://www.w3.org/1999/xlink" width="40pt" height="40pt" viewBox="0 0 40 40" version="1.1">
<g id="surface1">
<path style=" stroke:none;fill-rule:nonzero;fill:rgb(0%,0%,0%);fill-opacity:1;" d="M 17.878906 2.679688 C 17.71875 2.800781 17.601562 4.398438 17.601562 6.160156 C 17.601562 9 17.398438 9.921875 16 13.519531 L 14.398438 17.640625 L 14.398438 26.199219 C 14.398438 34.601562 14.398438 34.761719 15.28125 35.359375 C 16.039062 35.878906 17.640625 36 24.71875 36 L 33.238281 36 L 34.238281 34.960938 C 35.078125 34.160156 35.238281 33.640625 35.121094 32.519531 C 35 31.398438 35.160156 30.878906 35.921875 30.121094 C 36.71875 29.28125 36.878906 28.878906 36.679688 27.519531 C 36.519531 26.398438 36.640625 25.558594 37.078125 24.921875 C 37.480469 24.28125 37.640625 23.519531 37.480469 22.480469 C 37.320312 21.519531 37.441406 20.761719 37.800781 20.238281 C 38.71875 19.039062 38.519531 17.28125 37.398438 16.199219 C 36.441406 15.238281 36.28125 15.199219 30 15.199219 C 26.480469 15.199219 23.601562 15.078125 23.601562 14.960938 C 23.601562 14.839844 23.878906 13.71875 24.238281 12.519531 C 24.679688 11.078125 24.800781 9.640625 24.640625 8.480469 C 24.359375 6.441406 22.761719 3.398438 21.601562 2.800781 C 20.761719 2.359375 18.28125 2.238281 17.878906 2.679688 Z M 17.878906 2.679688 "/>
<path style=" stroke:none;fill-rule:nonzero;fill:rgb(0%,0%,0%);fill-opacity:1;" d="M 1.839844 15.558594 C 1.519531 16.078125 3.921875 35.28125 4.359375 35.71875 C 4.519531 35.878906 6.441406 35.960938 8.640625 35.921875 L 12.601562 35.800781 L 12.601562 15.398438 L 7.320312 15.28125 C 4.238281 15.238281 1.960938 15.320312 1.839844 15.558594 Z M 10.199219 31.601562 C 10.199219 32.320312 9.960938 32.640625 9.28125 32.71875 C 8.761719 32.800781 8.28125 32.601562 8.160156 32.238281 C 7.761719 31.199219 8.320312 30.320312 9.28125 30.480469 C 9.960938 30.558594 10.199219 30.878906 10.199219 31.601562 Z M 10.199219 31.601562 "/>
</g>
</svg>
