<?xml version="1.0" encoding="UTF-8"?>
<svg xmlns="http://www.w3.org/2000/svg" xmlns:xlink="http://www.w3.org/1999/xlink" width="40pt" height="40pt" viewBox="0 0 40 40" version="1.1">
<g id="surface1">
<path style=" stroke:none;fill-rule:nonzero;fill:rgb(0%,0%,0%);fill-opacity:1;" d="M 17.898438 2.800781 C 14.101562 3.339844 11 4.761719 8.261719 7.28125 C 2.039062 12.960938 0.898438 22.640625 5.621094 29.621094 C 9.238281 35 15.660156 37.980469 21.898438 37.199219 C 30.820312 36.101562 37.320312 28.78125 37.261719 19.898438 C 37.238281 16.320312 36.339844 13.339844 34.398438 10.421875 C 31.941406 6.738281 28.28125 4.179688 24.140625 3.199219 C 22.160156 2.738281 19.519531 2.558594 17.898438 2.800781 Z M 13.820312 18.179688 C 14.519531 18.878906 14.601562 19.058594 14.601562 20 C 14.601562 20.941406 14.519531 21.121094 13.820312 21.820312 C 13.121094 22.519531 12.941406 22.601562 12 22.601562 C 11.058594 22.601562 10.878906 22.519531 10.179688 21.820312 C 9.480469 21.121094 9.398438 20.941406 9.398438 20 C 9.398438 19.058594 9.480469 18.878906 10.179688 18.179688 C 10.878906 17.480469 11.058594 17.398438 12 17.398438 C 12.941406 17.398438 13.121094 17.480469 13.820312 18.179688 Z M 21.820312 18.179688 C 22.519531 18.878906 22.601562 19.058594 22.601562 20 C 22.601562 20.941406 22.519531 21.121094 21.820312 21.820312 C 21.121094 22.519531 20.941406 22.601562 20 22.601562 C 19.058594 22.601562 18.878906 22.519531 18.179688 21.820312 C 17.480469 21.121094 17.398438 20.941406 17.398438 20 C 17.398438 19.058594 17.480469 18.878906 18.179688 18.179688 C 18.878906 17.480469 19.058594 17.398438 20 17.398438 C 20.941406 17.398438 21.121094 17.480469 21.820312 18.179688 Z M 29.820312 18.179688 C 30.519531 18.878906 30.601562 19.058594 30.601562 20 C 30.601562 20.941406 30.519531 21.121094 29.820312 21.820312 C 29.121094 22.519531 28.941406 22.601562 28 22.601562 C 27.058594 22.601562 26.878906 22.519531 26.179688 21.820312 C 25.480469 21.121094 25.398438 20.941406 25.398438 20 C 25.398438 19.058594 25.480469 18.878906 26.179688 18.179688 C 26.878906 17.480469 27.058594 17.398438 28 17.398438 C 28.941406 17.398438 29.121094 17.480469 29.820312 18.179688 Z M 29.820312 18.179688 "/>
</g>
</svg>
